<svg width="201" height="80" viewBox="0 0 201 80" fill="none" xmlns="http://www.w3.org/2000/svg">
<path d="M3.01916 30.0951C5.03798 27.5368 9.23866 26.3236 11.3063 25.9985C11.3536 25.991 12.3404 25.8481 12.3851 25.8416C13.224 25.7203 13.5521 26.0146 13.5611 26.8696L13.5994 30.2873C13.6094 31.1417 13.2667 31.5337 12.4284 31.656C12.3731 31.6635 11.3767 31.8079 11.3219 31.817C8.3319 32.3081 6.13293 34.2887 6.10828 37.9897L6.22904 55.7737C6.23911 56.6296 5.89643 57.0206 5.0576 57.1419L1.76016 57.6189C0.921332 57.7402 0.594254 57.4463 0.584694 56.5914C0.584694 56.5914 0.532361 43.079 0.519781 39.9612C0.507705 36.8439 0.418136 33.3905 3.01916 30.0951Z" fill="#C3C3C3"/>
<path d="M73.0449 18.4874L66.7972 47.0655C66.5909 48.0079 66.2321 48.2882 65.3374 48.417L62.9905 48.7567C62.0963 48.8865 61.7204 48.6556 61.5428 47.8258L57.6893 32.2358C57.5766 31.8533 57.1298 31.9172 57.0181 32.3334L53.3276 49.0143C53.1148 49.902 52.8194 50.2291 51.9242 50.3589L49.5773 50.6985C48.6836 50.8279 48.2599 50.6613 48.0743 49.7752L41.6364 23.0338C41.4758 22.3153 41.6978 21.884 42.3137 21.7944L46.0016 21.2611C46.7282 21.1559 47.1207 21.4986 47.2812 22.2166L50.7608 38.3743C50.8172 38.7657 51.3284 38.7481 51.4321 38.2771L55.0486 21.093C55.2549 20.1505 55.5583 19.8783 56.452 19.7485L58.1286 19.5054C59.0228 19.3766 59.4475 19.5431 59.6322 20.4293L63.3352 36.5542C63.4565 36.9925 63.9506 36.8647 64.0618 36.449L67.3441 19.3132C67.5188 18.5463 67.8539 18.0985 68.5805 17.9933L72.2684 17.4594C72.8833 17.3698 73.2195 17.7211 73.0449 18.4874Z" fill="#C3C3C3"/>
<path d="M88.3012 14.4384L88.2383 8.33461C88.2368 7.53604 88.5714 7.08819 89.4097 6.96642L92.5763 6.50801C93.4152 6.38724 93.7508 6.73797 93.7523 7.53654L93.8152 13.6403C93.8479 14.2633 93.9858 14.4248 94.6007 14.3362L98.0843 13.8315C98.9221 13.7103 99.2517 14.0157 99.2447 14.7579L99.2573 17.21C99.2673 18.0639 98.9232 18.4463 98.0848 18.5671L94.7134 19.0557C94.098 19.1448 93.8977 19.3345 93.9304 19.9579L93.9843 35.6979C94.0512 38.0982 95.0863 39.2022 97.3487 38.9179C97.3894 38.9133 97.8312 38.8575 98.355 38.7312C99.1783 38.5324 99.5033 38.8806 99.5134 39.7346L99.5421 42.2988C99.5511 43.1528 99.221 43.4164 98.4089 43.657C98.0431 43.7657 97.4141 43.8733 97.3693 43.8804C91.2575 44.7283 88.3822 42.6818 88.3389 36.5151L88.2861 20.7746L88.3012 14.4384Z" fill="#C3C3C3"/>
<path d="M112.027 16.4819C110.294 16.7325 108.173 18.238 108.172 21.776L108.232 32.8362C108.231 36.3742 110.308 37.3293 112.041 37.0782C113.829 36.819 115.887 35.2662 115.888 31.7282L115.884 20.6599C115.83 17.1305 113.76 16.2313 112.027 16.4819ZM102.578 32.7995L102.545 23.5035C102.482 15.5816 107.49 11.9461 111.962 11.2995C116.489 10.6438 121.428 12.8397 121.49 20.761L121.524 30.0576C121.578 37.9226 116.577 41.6135 112.107 42.2606C107.635 42.9077 102.633 40.665 102.578 32.7995Z" fill="#C3C3C3"/>
<path d="M170.284 8.04961C168.551 8.3002 166.429 9.80576 166.427 13.3437L166.488 24.4035C166.487 27.9415 168.566 28.896 170.298 28.6454C172.087 28.3868 174.144 26.8334 174.145 23.2954L174.14 12.2276C174.086 8.69722 172.016 7.79851 170.284 8.04961ZM160.834 24.3662L160.8 15.0707C160.738 7.14939 165.746 3.5138 170.218 2.86669C174.745 2.21153 179.684 4.40748 179.746 12.3288L179.78 21.6243C179.834 29.4903 174.834 33.1807 170.363 33.8278C165.891 34.4755 160.888 32.2327 160.834 24.3662Z" fill="#C3C3C3"/>
<path d="M30.819 29.3555C30.8361 30.1315 30.81 31.3391 30.8366 32.8709L30.8411 43.9392C30.8477 47.1335 28.9974 48.9424 27.1059 49.273C25.3251 49.5875 23.1825 48.5862 23.1845 45.0472L23.1246 33.9875C23.1261 30.4495 25.1877 28.9751 27.0923 28.6873C27.9392 28.5595 28.7016 28.4533 29.6199 28.3205C30.4572 28.1992 30.8653 28.4926 30.819 29.3555ZM35.2029 22.8246C35.2029 22.8246 27.9422 23.8556 26.1458 24.1158C21.3428 24.8112 17.6302 26.6272 17.5029 34.1731L17.5251 46.5518C17.586 53.276 22.1016 55.7024 26.3723 54.4565C28.4082 53.9347 30.2106 52.5891 31.3901 50.8777L31.7268 52.028C31.9034 52.8583 32.1288 53.2241 32.9661 53.1029L35.3694 52.7552C36.2077 52.6339 36.5509 52.2429 36.5409 51.3875L36.3788 23.8526C36.4251 22.9901 36.0407 22.7028 35.2029 22.8246Z" fill="#C3C3C3"/>
<path d="M146.515 32.0882C144.679 32.4107 142.591 31.3888 142.537 27.8593L142.499 16.778C142.5 13.239 144.562 11.7656 146.467 11.4778C147.314 11.3495 148.076 11.2438 148.994 11.111C149.831 10.9892 150.239 11.283 150.194 12.146C150.211 12.922 150.174 14.1452 150.2 15.6775L150.251 26.7538C150.257 29.9486 148.351 31.7646 146.515 32.0882ZM154.577 5.61455C154.577 5.61455 147.317 6.6461 145.52 6.90575C140.717 7.60167 136.995 9.4328 136.868 16.9787L136.938 29.3639C136.925 35.9839 141.402 38.5316 145.618 37.2933C147.429 36.8036 149.144 35.6418 150.291 34.1065L150.314 38.3776C150.15 41.8583 148.018 43.7201 145.112 44.1865C145.068 44.1936 141.86 44.658 141.817 44.6641C140.979 44.7848 140.636 45.1773 140.646 46.0323L140.684 49.4495C140.693 50.3044 141.021 50.5993 141.859 50.4785C141.898 50.4725 145.102 50.0075 145.142 50.002C147.434 49.6699 151.425 48.4692 153.451 45.9014C156.051 42.606 155.961 39.1526 155.949 36.0353C155.947 35.2825 155.918 31.187 155.876 25.5909L155.855 25.5939L155.753 6.64257C155.799 5.7806 155.415 5.49328 154.577 5.61455Z" fill="#C3C3C3"/>
<path d="M190.923 0.171317C190.849 0.180878 187.831 0.617148 187.757 0.627715C186.919 0.749488 186.576 1.14098 186.586 1.99591L186.614 4.56019C186.623 5.41311 186.951 5.70849 187.79 5.58722C187.824 5.58219 190.801 5.15145 190.833 5.14793C193.112 4.85255 194.154 5.95657 194.222 8.36537L194.254 36.0145L194.249 36.0155C194.249 36.0628 194.262 42.0403 194.262 42.0871C194.236 45.1304 192.576 47.666 188.91 48.2507L9.68789 74.0118C7.29671 74.3097 6.31094 73.4065 6.25861 71.1109C6.25811 71.0772 6.29233 63.2681 6.29183 63.2334C6.28478 62.3855 5.94361 62.1062 5.09824 62.227L1.77312 62.7C0.92624 62.8197 0.591116 63.2178 0.598161 64.0651C0.598161 64.1396 0.564445 71.9905 0.565452 72.064C0.671626 78.1702 2.8721 80.7144 8.94618 79.8288C8.94618 79.8288 186.76 54.2292 187.806 54.0732C190.89 53.6138 194.317 53.1795 197.181 50.1125C199.409 47.7249 200.065 43.3622 200.072 41.2744C200.072 41.2512 200.073 39.5862 200.074 38.0021L200.082 38.0011C200.08 37.6881 200.077 37.3766 200.075 37.0642C200.075 36.0225 200.076 35.1938 200.076 35.1782L200.061 35.1802C199.955 20.7988 199.866 7.54817 199.866 7.54817C199.825 1.40968 196.974 -0.64688 190.923 0.171317Z" fill="#C3C3C3"/>
</svg>
