<svg width="118" height="84" viewBox="0 0 118 84" fill="none" xmlns="http://www.w3.org/2000/svg">
<path d="M51.4841 72.0564C51.4841 72.4493 51.6167 72.773 51.8802 73.026C52.143 73.2798 52.4464 73.4058 52.7904 73.4058C53.1638 73.4058 53.4786 73.2773 53.7348 73.0195C53.9918 72.7576 54.1195 72.4403 54.1195 72.0654C54.1195 71.6863 53.9927 71.3683 53.7397 71.112C53.4875 70.8534 53.176 70.7249 52.8043 70.7249C52.4342 70.7249 52.1218 70.8534 51.8664 71.112C51.6118 71.3666 51.4841 71.6814 51.4841 72.0564ZM50.9424 72.0491C50.9424 71.5488 51.1262 71.1194 51.4939 70.759C51.8591 70.4003 52.2983 70.2206 52.8108 70.2206C53.3175 70.2206 53.7527 70.4019 54.1147 70.7639C54.4791 71.1259 54.6613 71.5619 54.6613 72.0702C54.6613 72.5819 54.4783 73.0154 54.1122 73.3717C53.7454 73.7296 53.3029 73.9077 52.7839 73.9077C52.3244 73.9077 51.912 73.7491 51.5467 73.4311C51.1441 73.0797 50.9424 72.6185 50.9424 72.0491Z" fill="#C3C3C3"/>
<path d="M58.2906 70.8173L57.8554 71.0743C57.7741 70.9344 57.6968 70.8417 57.6228 70.7986C57.5455 70.7498 57.4471 70.7253 57.3251 70.7253C57.1762 70.7253 57.0534 70.7668 56.9542 70.8514C56.8566 70.9352 56.8069 71.0385 56.8069 71.1654C56.8069 71.3387 56.9363 71.4777 57.1941 71.5835L57.5488 71.7291C57.8375 71.8462 58.049 71.9878 58.1824 72.1561C58.3158 72.3253 58.3825 72.5303 58.3825 72.7751C58.3825 73.1021 58.2735 73.373 58.0555 73.5853C57.8359 73.8008 57.5634 73.9082 57.2381 73.9082C56.9298 73.9082 56.6744 73.8171 56.4735 73.6341C56.275 73.4511 56.1513 73.194 56.1025 72.863L56.6459 72.7426C56.6703 72.9516 56.7134 73.0964 56.7752 73.1753C56.885 73.3299 57.0469 73.4063 57.2584 73.4063C57.4259 73.4063 57.565 73.3502 57.6757 73.2388C57.7863 73.1257 57.8416 72.9842 57.8416 72.8117C57.8416 72.7426 57.8318 72.6791 57.8131 72.6222C57.7936 72.5636 57.7635 72.5116 57.7228 72.4628C57.6822 72.4148 57.6301 72.3692 57.565 72.3269C57.5008 72.2846 57.4243 72.2448 57.3348 72.2057L56.9916 72.0634C56.5044 71.8568 56.2612 71.5566 56.2612 71.1605C56.2612 70.8929 56.3636 70.6692 56.5678 70.4903C56.772 70.3089 57.0258 70.2186 57.33 70.2186C57.7399 70.2186 58.0604 70.4179 58.2906 70.8173Z" fill="#C3C3C3"/>
<path d="M62.6959 70.4781V71.1142C62.386 70.8547 62.0647 70.7253 61.7328 70.7253C61.3676 70.7253 61.0593 70.8563 60.8096 71.119C60.5575 71.3793 60.4314 71.699 60.4314 72.0772C60.4314 72.4506 60.5575 72.7654 60.8096 73.0216C61.061 73.2778 61.37 73.4063 61.7353 73.4063C61.924 73.4063 62.085 73.3762 62.2168 73.3136C62.29 73.2835 62.3665 73.2412 62.4462 73.19C62.5251 73.1379 62.608 73.0745 62.6959 73.0013V73.6479C62.3884 73.8212 62.0663 73.9082 61.7288 73.9082C61.2204 73.9082 60.786 73.7309 60.4265 73.3762C60.0694 73.0183 59.8896 72.5872 59.8896 72.0821C59.8896 71.6282 60.0393 71.2248 60.3395 70.8693C60.7079 70.435 61.1846 70.2186 61.7694 70.2186C62.0891 70.2186 62.3982 70.3048 62.6959 70.4781Z" fill="#C3C3C3"/>
<path d="M64.6804 72.0564C64.6804 72.4493 64.813 72.773 65.0765 73.026C65.3393 73.2798 65.6427 73.4058 65.9867 73.4058C66.3601 73.4058 66.6749 73.2773 66.9311 73.0195C67.1881 72.7576 67.3158 72.4403 67.3158 72.0654C67.3158 71.6863 67.1889 71.3683 66.936 71.112C66.6838 70.8534 66.3723 70.7249 66.0006 70.7249C65.6305 70.7249 65.3181 70.8534 65.0627 71.112C64.8081 71.3666 64.6804 71.6814 64.6804 72.0564ZM64.1387 72.0491C64.1387 71.5488 64.3225 71.1194 64.6902 70.759C65.0554 70.4003 65.4946 70.2206 66.0071 70.2206C66.5138 70.2206 66.949 70.4019 67.311 70.7639C67.6754 71.1259 67.8576 71.5619 67.8576 72.0702C67.8576 72.5819 67.6745 73.0154 67.3085 73.3717C66.9417 73.7296 66.4992 73.9077 65.9802 73.9077C65.5206 73.9077 65.1083 73.7491 64.743 73.4311C64.3404 73.0797 64.1387 72.6185 64.1387 72.0491Z" fill="#C3C3C3"/>
<path d="M69.3684 70.2873L70.294 72.6641L71.262 70.1141L72.1876 72.6641L73.1718 70.2873H73.7542L72.1649 74.0688L71.2498 71.5497L70.2965 74.0713L68.7852 70.2873H69.3684Z" fill="#C3C3C3"/>
<path d="M43.2457 10.5269V11.1622C42.9358 10.9035 42.6145 10.7734 42.2826 10.7734C41.9174 10.7734 41.6091 10.9043 41.3594 11.1671C41.1073 11.4282 40.9812 11.7478 40.9812 12.1252C40.9812 12.4986 41.1073 12.8142 41.3594 13.0696C41.6108 13.3258 41.9199 13.4552 42.2851 13.4552C42.4738 13.4552 42.6348 13.4243 42.7666 13.3624C42.8398 13.3315 42.9163 13.29 42.996 13.238C43.0749 13.1859 43.1579 13.1225 43.2457 13.0493V13.6959C42.9382 13.87 42.6161 13.957 42.2786 13.957C41.7702 13.957 41.3358 13.7797 40.9763 13.4251C40.6192 13.0672 40.4395 12.6352 40.4395 12.1301C40.4395 11.6771 40.5891 11.2728 40.8893 10.9181C41.2577 10.4838 41.7344 10.2666 42.3192 10.2666C42.6389 10.2666 42.948 10.3528 43.2457 10.5269Z" fill="#C3C3C3"/>
<path d="M45.2302 12.1044C45.2302 12.4973 45.3628 12.821 45.6263 13.074C45.8891 13.3278 46.1925 13.4547 46.5365 13.4547C46.9099 13.4547 47.2247 13.3253 47.4809 13.0683C47.7379 12.8064 47.8656 12.4892 47.8656 12.1142C47.8656 11.7343 47.7387 11.4163 47.4858 11.1601C47.2336 10.9022 46.9221 10.7729 46.5504 10.7729C46.1803 10.7729 45.8679 10.9022 45.6125 11.1601C45.3579 11.4147 45.2302 11.7303 45.2302 12.1044ZM44.6885 12.0979C44.6885 11.5969 44.8723 11.1674 45.24 10.8079C45.6052 10.4483 46.0444 10.2686 46.5569 10.2686C47.0636 10.2686 47.4988 10.45 47.8608 10.8119C48.2252 11.1747 48.4074 11.6107 48.4074 12.1191C48.4074 12.6299 48.2243 13.0642 47.8583 13.4197C47.4915 13.7784 47.049 13.9565 46.53 13.9565C46.0705 13.9565 45.6581 13.7979 45.2928 13.4799C44.8902 13.1285 44.6885 12.6673 44.6885 12.0979Z" fill="#C3C3C3"/>
<path d="M50.0254 13.8925V10.0939L52.6193 12.8074V10.3355H53.1562V14.1089L50.5622 11.4019V13.8925H50.0254Z" fill="#C3C3C3"/>
<path d="M57.6744 10.5269V11.1622C57.3645 10.9035 57.0432 10.7734 56.7113 10.7734C56.3461 10.7734 56.0378 10.9043 55.7881 11.1671C55.536 11.4282 55.4099 11.7478 55.4099 12.1252C55.4099 12.4986 55.536 12.8142 55.7881 13.0696C56.0395 13.3258 56.3486 13.4552 56.7138 13.4552C56.9025 13.4552 57.0635 13.4243 57.1953 13.3624C57.2685 13.3315 57.345 13.29 57.4247 13.238C57.5036 13.1859 57.5866 13.1225 57.6744 13.0493V13.6959C57.3669 13.87 57.0448 13.957 56.7073 13.957C56.1989 13.957 55.7645 13.7797 55.405 13.4251C55.0479 13.0672 54.8682 12.6352 54.8682 12.1301C54.8682 11.6771 55.0178 11.2728 55.318 10.9181C55.6864 10.4838 56.1631 10.2666 56.7479 10.2666C57.0676 10.2666 57.3767 10.3528 57.6744 10.5269Z" fill="#C3C3C3"/>
<path d="M60.115 13.8921H59.5781V10.3351H60.115V13.8921Z" fill="#C3C3C3"/>
<path d="M64.3006 10.8394H62.8747V11.6943H64.2592V12.1986H62.8747V13.3878H64.3006V13.8921H62.3379V10.3351H64.3006V10.8394Z" fill="#C3C3C3"/>
<path d="M66.8161 11.9689H66.987C67.4945 11.9689 67.7491 11.7753 67.7491 11.3865C67.7491 11.0221 67.5018 10.8399 67.0073 10.8399H66.8161V11.9689ZM67.4839 12.3772L68.5853 13.8926H67.9289L66.9129 12.4366H66.8161V13.8926H66.2793V10.3356H66.9081C67.3782 10.3356 67.7174 10.4242 67.9264 10.6007C68.1566 10.7976 68.2721 11.057 68.2721 11.3792C68.2721 11.6313 68.1997 11.8485 68.0558 12.0291C67.911 12.2105 67.7207 12.326 67.4839 12.3772Z" fill="#C3C3C3"/>
<path d="M71.9862 12.0402H73.456V12.1581C73.456 12.4249 73.4243 12.6616 73.3616 12.8674C73.2998 13.0577 73.1965 13.2359 73.0509 13.4018C72.7199 13.7735 72.3001 13.959 71.7901 13.959C71.2923 13.959 70.8669 13.78 70.5123 13.4197C70.1568 13.0594 69.9795 12.6266 69.9795 12.1215C69.9795 11.605 70.1601 11.1674 70.5212 10.8079C70.8824 10.4467 71.3216 10.2661 71.8389 10.2661C72.1171 10.2661 72.3758 10.3239 72.6174 10.4369C72.8476 10.5508 73.0745 10.7355 73.2966 10.9901L72.9151 11.3561C72.6231 10.9681 72.2676 10.7729 71.8479 10.7729C71.4721 10.7729 71.1557 10.9038 70.9011 11.1625C70.6465 11.4171 70.5188 11.7368 70.5188 12.1215C70.5188 12.5168 70.6611 12.843 70.945 13.1C71.211 13.3384 71.4989 13.4571 71.8088 13.4571C72.0732 13.4571 72.3099 13.3685 72.5206 13.1895C72.7312 13.0097 72.8484 12.795 72.8728 12.5445H71.9862V12.0402Z" fill="#C3C3C3"/>
<path d="M77.2254 10.8399H75.7995V11.6948H77.184V12.1991H75.7995V13.3883H77.2254V13.8926H75.2627V10.3356H77.2254V10.8399Z" fill="#C3C3C3"/>
<path d="M76.6602 82H41.3438C19.2875 82 1.34375 64.0563 1.34375 42C1.34375 19.9437 19.2875 2 41.3438 2H76.6602C98.7165 2 116.66 19.9437 116.66 42C116.66 64.0563 98.7165 82 76.6602 82Z" stroke="#C3C3C3" stroke-width="2.32" stroke-miterlimit="10"/>
<path d="M41.5743 5.29626C21.5369 5.29626 5.11914 21.7612 5.11914 42.0003C5.11914 62.2387 21.5369 78.7036 41.5743 78.7036H76.4295C96.4678 78.7036 112.885 62.2387 112.885 42.0003C112.885 21.7612 96.4678 5.29626 76.4295 5.29626H41.5743Z" stroke="#C3C3C3" stroke-width="0.866667" stroke-miterlimit="10"/>
<path d="M41.459 18.6748C28.5974 18.6748 18.1338 29.1384 18.1338 42C18.1338 54.8616 28.5974 65.3252 41.459 65.3252H76.5452C89.4068 65.3252 99.8704 54.8616 99.8704 42C99.8704 29.1384 89.4068 18.6748 76.5452 18.6748H41.459Z" stroke="#C3C3C3" stroke-width="0.866667" stroke-miterlimit="10"/>
<path d="M30.4375 34.6745H31.874V47.6573H37.4027V49.0449H30.4375V34.6745Z" fill="#C3C3C3"/>
<path d="M46.2579 35.7096C45.1948 35.7096 44.1869 35.9862 43.2344 36.5401C42.282 37.0949 41.5385 37.8416 41.0033 38.7794C40.4689 39.7181 40.2013 40.7641 40.2013 41.9176C40.2013 43.6249 40.7934 45.0679 41.9769 46.2441C43.1604 47.4202 44.588 48.0091 46.2579 48.0091C47.3731 48.0091 48.4061 47.7383 49.3545 47.1974C50.3038 46.6565 51.0439 45.9171 51.5759 44.9784C52.1079 44.0397 52.3739 42.9969 52.3739 41.8492C52.3739 40.7088 52.1079 39.6774 51.5759 38.755C51.0439 37.8326 50.2956 37.0949 49.3301 36.5401C48.3646 35.9862 47.3413 35.7096 46.2579 35.7096ZM46.1944 34.313C48.3711 34.313 50.1923 35.0386 51.6589 36.4913C53.1246 37.9441 53.8583 39.7311 53.8583 41.8541C53.8583 43.9584 53.1263 45.7422 51.6638 47.2079C50.2004 48.6729 48.4167 49.4058 46.3116 49.4058C44.1804 49.4058 42.382 48.6761 40.9162 47.2177C39.4497 45.7585 38.7168 43.9942 38.7168 41.9224C38.7168 40.5421 39.0503 39.2626 39.7181 38.0832C40.3867 36.9045 41.2969 35.9813 42.4503 35.3143C43.6037 34.6465 44.8515 34.313 46.1944 34.313Z" fill="#C3C3C3"/>
<path d="M58.8947 42.1276V47.6368H60.6752C61.7261 47.6368 62.4956 47.5343 62.9853 47.3293C63.4741 47.1243 63.8678 46.8038 64.1647 46.367C64.4608 45.931 64.6096 45.4585 64.6096 44.9509C64.6096 44.3124 64.4014 43.7552 63.9833 43.2802C63.566 42.8051 62.9934 42.479 62.263 42.3033C61.7725 42.1861 60.9217 42.1276 59.7072 42.1276H58.8947ZM58.8947 36.0807V40.6821H59.717C60.7159 40.6821 61.4504 40.5886 61.9197 40.4031C62.3899 40.2177 62.7616 39.9249 63.0357 39.5239C63.3098 39.1237 63.4473 38.6787 63.4473 38.1907C63.4473 37.5326 63.2171 37.0169 62.7575 36.642C62.2971 36.2678 61.5643 36.0807 60.5589 36.0807H58.8947ZM57.4883 34.6735H60.3206C61.461 34.6735 62.337 34.8085 62.9487 35.0786C63.5612 35.3495 64.0443 35.7651 64.3998 36.3247C64.7552 36.8852 64.9317 37.5066 64.9317 38.1907C64.9317 38.8292 64.7764 39.41 64.4657 39.9346C64.1541 40.4585 63.697 40.8839 63.0943 41.2092C63.8418 41.463 64.4161 41.7607 64.8187 42.1032C65.2213 42.4448 65.5345 42.8588 65.7582 43.3436C65.9827 43.8292 66.0949 44.3547 66.0949 44.9216C66.0949 46.0742 65.6728 47.0495 64.8293 47.8474C63.9858 48.6454 62.8551 49.0439 61.4349 49.0439H57.4883V34.6735Z" fill="#C3C3C3"/>
<path d="M71.3224 42.1281V47.6372H73.1029C74.1539 47.6372 74.9233 47.5348 75.4122 47.3298C75.9019 47.1248 76.2956 46.8043 76.5916 46.3675C76.8885 45.9315 77.0374 45.4589 77.0374 44.9514C77.0374 44.3129 76.8291 43.7557 76.4111 43.2806C75.9938 42.8056 75.4203 42.4794 74.6907 42.3037C74.2002 42.1866 73.3486 42.1281 72.135 42.1281H71.3224ZM71.3224 36.0812V40.6826H72.1447C73.1436 40.6826 73.8773 40.5891 74.3474 40.4036C74.8168 40.2182 75.1893 39.9253 75.4634 39.5243C75.7376 39.1241 75.875 38.6792 75.875 38.1912C75.875 37.5331 75.6448 37.0174 75.1844 36.6424C74.7249 36.2683 73.992 36.0812 72.9866 36.0812H71.3224ZM69.916 34.674H72.7483C73.8879 34.674 74.7639 34.809 75.3764 35.0791C75.9881 35.3499 76.4721 35.7656 76.8275 36.3252C77.1822 36.8857 77.3595 37.5071 77.3595 38.1912C77.3595 38.8297 77.2041 39.4105 76.8934 39.9351C76.5819 40.4589 76.1247 40.8844 75.522 41.2097C76.2687 41.4635 76.8438 41.7612 77.2464 42.1036C77.6491 42.4453 77.9622 42.8593 78.1859 43.3441C78.4104 43.8297 78.5218 44.3552 78.5218 44.9221C78.5218 46.0747 78.1005 47.05 77.257 47.8479C76.4135 48.6459 75.282 49.0444 73.8627 49.0444H69.916V34.674Z" fill="#C3C3C3"/>
<path d="M79.5576 34.6745H81.2096L84.887 40.601L88.5059 34.6745H90.166L85.6142 42.1773V49.0449H84.1981V42.1773L79.5576 34.6745Z" fill="#C3C3C3"/>
<path d="M45.6113 73.8438L46.3597 70.02L47.5806 72.784L48.8454 70.02L49.5181 73.8438H48.9674L48.6242 71.6964L47.5716 74.0073L46.5484 71.6948L46.1669 73.8438H45.6113Z" fill="#C3C3C3"/>
</svg>
