<svg width="230" height="60" viewBox="0 0 230 60" fill="none" xmlns="http://www.w3.org/2000/svg">
<path d="M16.0087 1.05255H0.920898V58.9473H16.0087V1.05255Z" fill="#C3C3C3"/>
<path d="M52.6753 1.05255H35.7455L18.0439 28.6595L38.6401 58.9473H55.9207L35.0354 28.2343L52.6753 1.05255Z" fill="#C3C3C3"/>
<path d="M118.532 -0.000360552L95.163 30.0874L69.2336 -0.000360552H64.4092V17.2325L91.5144 48.6836H96.2513L123.356 17.2803V-0.000360552H118.532Z" fill="#C3C3C3"/>
<path d="M64.4092 58.9473H79.497V40.0002L64.4092 22.4562V58.9473Z" fill="#C3C3C3"/>
<path d="M108.27 39.9997V58.9468H123.357V22.4557L108.27 39.9997Z" fill="#C3C3C3"/>
<path d="M138.401 5.96502C134.395 9.94254 132.393 14.5328 132.393 19.7368C132.393 21.3749 132.597 23.0126 133.007 24.6492H148.182C147.948 23.188 147.831 21.9012 147.831 20.7895C147.831 18.5679 148.386 16.8571 149.498 15.6582C150.608 14.46 152.042 13.8598 153.796 13.8598C155.608 13.8598 157.07 14.4449 158.182 15.6142C159.292 16.7847 159.849 18.3924 159.849 20.4386C159.849 23.9474 157.538 28.2167 152.919 33.2457L143.972 42.9824H161.691L162.656 42.0177C166.808 37.6317 169.95 33.6993 172.086 30.2193C174.22 26.7408 175.287 23.0126 175.287 19.0351C175.287 13.5389 173.27 8.99145 169.235 5.39474C165.2 1.79842 160.141 7.19133e-05 154.059 7.19133e-05C147.626 7.19133e-05 142.406 1.98902 138.401 5.96502Z" fill="#C3C3C3"/>
<path d="M140.988 46.316L132.129 55.9651V59.0352L176.427 58.9476V46.316H140.988Z" fill="#C3C3C3"/>
<path d="M226.009 47.9383C228.669 42.7631 230 36.6378 230 29.5611C230 20.7891 227.938 13.6704 223.816 8.20144C219.693 2.73439 213.742 -0.000272828 205.965 -0.000272828C204.036 -0.000272828 202.281 0.175163 200.702 0.526042V14.8246C202.046 14.1815 203.684 13.8595 205.614 13.8595C208.713 13.8595 210.978 15.0875 212.412 17.5437C213.845 19.9999 214.561 24.035 214.561 29.649V58.5083C219.531 56.6376 223.348 53.1136 226.009 47.9383Z" fill="#C3C3C3"/>
<path d="M211.228 59.4737V45.1755C209.882 45.8197 208.245 46.1403 206.315 46.1403C203.215 46.1403 200.95 44.9122 199.517 42.456C198.084 40.0003 197.368 35.9651 197.368 30.3511V1.40352C192.397 3.27614 188.581 6.81335 185.921 12.0178C183.259 17.2234 181.93 23.3638 181.93 30.4386C181.93 39.2106 183.991 46.3309 188.114 51.7983C192.237 57.2669 198.186 60 205.965 60C207.894 60 209.649 59.8246 211.228 59.4737Z" fill="#C3C3C3"/>
</svg>
