<svg width="197" height="60" viewBox="0 0 197 60" fill="none" xmlns="http://www.w3.org/2000/svg">
<path d="M179.997 59.304C178.012 59.304 176.022 59.2849 174.038 59.3122C173.279 59.3231 172.931 59.0283 172.807 58.264C171.813 52.0687 170.787 45.8816 169.77 39.6904C168.5 31.9473 167.231 24.2042 165.957 16.4611C165.171 11.6744 164.382 6.8877 163.6 2.0969C163.454 1.19743 163.651 0.972214 164.553 0.968119C167.235 0.95993 169.92 0.987231 172.602 0.951744C173.353 0.944919 173.65 1.22745 173.743 1.95768C174.726 9.58748 175.729 17.2145 176.731 24.8403C177.717 32.3431 178.708 39.846 179.718 47.3448C179.761 47.6628 180.012 47.9535 180.163 48.2565C180.307 47.9385 180.531 47.6273 180.577 47.2943C181.56 39.6863 182.527 32.0756 183.491 24.469C184.343 17.7578 185.186 11.0425 186.034 4.33124C186.135 3.5355 186.258 2.74522 186.335 1.94949C186.405 1.25885 186.73 0.951745 187.438 0.959934C190.097 0.979043 192.756 0.959933 195.411 0.972217C196.366 0.976311 196.52 1.13055 196.37 2.07779C195.886 5.1338 195.371 8.19118 194.869 11.2445C193.669 18.5522 192.473 25.8653 191.278 33.173C189.916 41.5057 188.56 49.8384 187.198 58.1671C187.044 59.1102 186.816 59.2999 185.875 59.2999C183.921 59.304 181.958 59.304 179.997 59.304Z" fill="#C3C3C3"/>
<path d="M69.3799 49.3808H61.1222C60.9202 51.4404 60.7196 53.47 60.5176 55.4982C60.4452 56.2626 60.3633 57.0228 60.2978 57.7872C60.2514 58.3413 59.9798 58.5829 59.4038 58.5788C57.0043 58.5597 54.6048 58.5625 52.2053 58.5747C51.5556 58.5788 51.355 58.2758 51.4314 57.6589C52.2094 51.4254 52.9833 45.1905 53.7531 38.957C54.4424 33.3827 55.1194 27.8044 55.8086 22.2301C56.4979 16.6559 57.194 11.0816 57.886 5.506C58.0457 4.23801 58.215 2.97274 58.3556 1.70475C58.4129 1.16152 58.6954 0.952692 59.21 0.952692C63.2419 0.956787 67.2779 0.956787 71.3112 0.952692C71.8722 0.952692 72.1151 1.20383 72.1888 1.77436C72.8904 7.42642 73.6056 13.0744 74.3222 18.7237C75.0647 24.5723 75.8113 30.4264 76.5511 36.2763C77.239 41.7237 77.9201 47.1696 78.6011 52.6197C78.81 54.2917 79.0079 55.9678 79.2317 57.6357C79.3218 58.3072 79.0625 58.5788 78.3964 58.5788C75.9696 58.5665 73.5469 58.5597 71.1215 58.5829C70.3708 58.5898 70.2507 58.1639 70.192 57.562C69.9531 54.9946 69.6965 52.4259 69.4413 49.8585C69.4345 49.7138 69.4072 49.5664 69.3799 49.3808ZM68.4818 40.4543C68.4818 40.21 68.4981 40.0353 68.4777 39.8606C68.1951 37.0953 67.8976 34.3286 67.6232 31.5592C66.934 24.6228 66.2611 17.6877 65.5609 10.7513C65.5377 10.5152 65.2974 10.2968 65.1623 10.073C65.0422 10.3132 64.8443 10.5452 64.817 10.7936C64.6245 12.598 64.4689 14.4011 64.2983 16.2096C63.6063 23.479 62.9102 30.7444 62.2169 38.0152C62.1391 38.8137 62.0927 39.6163 62.0271 40.4584C64.226 40.4543 66.3116 40.4543 68.4818 40.4543Z" fill="#C3C3C3"/>
<path d="M102.314 58.7724H95.1128C93.9199 58.7724 93.7342 58.6332 93.4326 57.4498C90.7041 46.7899 87.9771 36.126 85.2486 25.4647C83.2859 17.7994 81.3245 10.1382 79.3591 2.47294C78.9947 1.06027 79.0725 0.960633 80.5698 0.960633H90.3752C91.6841 0.960633 91.7688 1.01796 92.0663 2.31325C95.4103 16.8535 98.7502 31.3884 102.101 45.9287C102.175 46.2426 102.38 46.5252 102.523 46.8241C102.662 46.5252 102.86 46.2385 102.93 45.9246C106.23 31.2997 109.528 16.6706 112.801 2.0389C112.983 1.23224 113.374 0.944254 114.171 0.952443C117.541 0.975647 120.912 0.960632 124.286 0.963362C125.532 0.963362 125.703 1.18175 125.397 2.36375C120.645 20.779 115.893 39.1943 111.141 57.6054C110.873 58.6373 110.704 58.7683 109.671 58.7683C107.221 58.7765 104.768 58.7724 102.314 58.7724Z" fill="#C3C3C3"/>
<path d="M7.45287 40.542C9.39513 40.542 11.3347 40.5502 13.2769 40.5379C13.8652 40.5338 14.2951 40.7044 14.3374 41.365C14.635 45.891 17.5845 47.7268 21.3175 48.3083C24.6302 48.8242 27.936 48.6536 31.1817 47.7609C35.346 46.6212 35.9725 42.7886 34.8819 39.9332C34.3019 38.4045 32.8933 37.6402 31.4301 37.2403C28.5311 36.4527 25.5979 35.7703 22.6497 35.1765C18.0909 34.2539 13.5444 33.3189 9.40332 31.0614C4.94555 28.625 2.56926 24.8265 2.16252 19.7886C1.91547 16.7272 2.1475 13.7244 3.39366 10.8499C4.96875 7.21516 7.60711 4.62458 11.0862 2.85157C15.3775 0.667726 19.9868 -0.0160905 24.7434 0.000288346C28.082 0.0112076 31.3646 0.375638 34.5489 1.41979C40.1518 3.25422 44.0759 6.88212 45.9567 12.5069C46.6146 14.4778 46.9013 16.5716 47.3148 18.6203C47.4581 19.3218 47.1715 19.6412 46.444 19.644C42.7915 19.6603 39.1391 19.6521 35.4852 19.6521C34.6267 19.6521 34.4479 19.0516 34.3674 18.376C34.2049 17.037 33.8173 15.7731 33.0434 14.6593C31.8751 12.9764 30.199 12.0415 28.2335 11.6456C24.7202 10.94 21.222 10.9195 17.8466 12.3008C14.6814 13.5961 13.4816 17.5652 15.3898 20.2964C16.1255 21.3473 17.2324 21.9411 18.424 22.2509C21.0364 22.9347 23.6665 23.5708 26.3104 24.1167C30.8882 25.0681 35.4811 25.9798 39.6686 28.1705C44.0459 30.4635 46.6883 34.0519 47.3735 39.0174C47.8608 42.5402 47.7339 45.9961 46.4563 49.3592C45.1051 52.9162 42.5554 55.3525 39.2387 57.0477C34.538 59.4527 29.4483 59.9959 24.2821 60C20.0031 60 15.7842 59.5236 11.725 57.9991C5.74265 55.7524 2.26761 51.4544 1.11018 45.2208C0.901347 44.0921 0.793519 42.9428 0.665218 41.8031C0.557391 40.845 0.839926 40.5379 1.78717 40.5338C3.6721 40.5379 5.56385 40.542 7.45287 40.542Z" fill="#C3C3C3"/>
<path d="M142.474 29.709H141.495H128.237C127.192 29.709 127.011 29.5425 127.007 28.5175C126.994 25.9351 126.999 23.3554 127.007 20.7717C127.011 19.7671 127.188 19.5883 128.167 19.5883C136.062 19.5842 143.952 19.5842 151.847 19.5883C152.884 19.5883 153.046 19.7862 153.046 20.9723V48.7412V49.8113H154.029C157.323 49.8113 160.619 49.8072 163.912 49.8113C164.91 49.8113 165.081 49.9696 165.085 50.9592C165.097 53.5662 165.097 56.1772 165.085 58.7842C165.081 59.7191 164.88 59.9129 163.946 59.9129C152.02 59.917 140.091 59.917 128.163 59.9129C127.22 59.9129 127.014 59.726 127.011 58.8033C126.999 56.169 126.999 53.5348 127.011 50.9019C127.014 49.9737 127.201 49.8113 128.16 49.8072C132.602 49.8031 137.048 49.8072 141.491 49.8072H142.47C142.474 43.1124 142.474 36.4585 142.474 29.709Z" fill="#C3C3C3"/>
<path d="M145.805 15.8101H144.447C140.356 15.8101 137.035 12.4852 137.035 8.3809C137.035 4.28073 140.352 0.953102 144.447 0.953102H145.805C149.895 0.953102 153.215 4.27664 153.215 8.3809C153.215 12.4811 149.899 15.8101 145.805 15.8101Z" fill="#C3C3C3"/>
</svg>
