<svg width="314" height="80" viewBox="0 0 314 80" fill="none" xmlns="http://www.w3.org/2000/svg">
<path d="M238.705 1.45619V15.4844H241.666C247.394 15.4844 249.675 12.8147 249.675 8.44592C249.675 4.02865 247.054 1.45619 242.783 1.45619H238.705ZM235.016 0.630928V0.388167C235.89 0.436656 237.443 0.48546 238.462 0.48546C239.482 0.48546 241.52 0.388167 243.753 0.388167C249.093 0.388167 252.976 3.34917 252.976 8.15467C252.976 13.4942 249.093 16.504 241.666 16.504H238.705V29.6097C238.705 30.7747 239.142 32.4737 239.482 33.1532V33.396H235.016V33.1532C235.356 32.4737 235.793 30.7262 235.793 29.5612V4.22293C235.793 3.05792 235.356 1.31041 235.016 0.630928ZM232.199 0.388167L233.218 4.02865H232.927C231.956 3.10641 228.607 1.45619 227.539 1.45619H223.753V29.5612C223.753 30.7262 224.189 32.4737 224.529 33.1532V33.396H220.063V33.1532C220.403 32.4737 220.84 30.7262 220.84 29.5612V1.45619H217.103C215.986 1.45619 212.248 3.34917 211.423 4.02865H211.132L212.346 0.388167H232.199ZM206.519 18.4939L201.083 3.49495L196.472 18.4939H206.519ZM193.51 33.396H190.55L190.501 33.1532L200.986 -6.44277e-05H202.976L214.965 33.1532V33.396H210.597V33.1532C210.839 32.1825 210.597 29.7551 209.917 27.8137L206.908 19.5617H196.18L193.947 26.7945C192.977 29.9009 193.025 31.7942 193.51 33.1532V33.396ZM188.898 29.804H189.189L188.17 33.396H173.559V33.1532C173.899 32.4737 174.336 30.7262 174.336 29.5612V4.22293C174.336 3.05792 173.899 1.31041 173.559 0.630928V0.388167H187.733L188.753 3.98016H188.461C187.49 3.05792 184.529 1.4077 183.073 1.4077H177.248V14.9019H186.908V15.9212H177.248V32.3767H183.51C184.966 32.3767 187.927 30.7262 188.898 29.804ZM170.742 0.388167L171.762 4.02865H171.47C170.499 3.10641 167.15 1.45619 166.082 1.45619H162.296V29.5612C162.296 30.7262 162.733 32.4737 163.073 33.1532V33.396H158.607V33.1532C158.947 32.4737 159.384 30.7262 159.384 29.5612V1.45619H155.646C154.53 1.45619 150.792 3.34917 149.967 4.02865H149.675L150.889 0.388167H170.742ZM147.005 17.1835C147.005 9.65941 145.597 1.06796 139.723 1.06796C133.947 1.06796 132.442 9.65941 132.442 17.1835C132.442 25.484 134.432 32.7165 139.723 32.7165C144.966 32.7165 147.005 25.484 147.005 17.1835ZM129.19 17.1835C129.19 9.31967 132.636 -6.44277e-05 139.723 -6.44277e-05C146.907 -6.44277e-05 150.257 9.31967 150.257 17.1835C150.257 26.212 146.034 33.7842 139.723 33.7842C133.413 33.7842 129.19 26.212 129.19 17.1835ZM106.714 0.630928V0.388167H111.179V0.630928C110.84 1.31041 110.403 3.05792 110.403 4.22293V14.8535H123.023V4.22293C123.023 3.05792 122.587 1.31041 122.247 0.630928V0.388167H126.712V0.630928C126.373 1.31041 125.936 3.05792 125.936 4.22293V29.5612C125.936 30.7262 126.373 32.4737 126.712 33.1532V33.396H122.247V33.1532C122.587 32.4737 123.023 30.7262 123.023 29.5612V15.8727H110.403V29.5612C110.403 30.7262 110.84 32.4737 111.179 33.1532V33.396H106.714V33.1532C107.053 32.4737 107.49 30.7262 107.49 29.5612V4.22293C107.49 3.05792 107.053 1.31041 106.714 0.630928ZM83.365 0.630928V0.388167H87.7822V0.630928C87.4425 1.31041 87.0058 3.05792 87.0058 4.22293V30.2407L99.966 0.388167H103.606V0.630928C103.267 1.31041 102.83 3.05792 102.83 4.22293V29.5612C102.83 30.7262 103.267 32.4737 103.606 33.1532V33.396H99.1895V33.1532C99.529 32.4737 99.966 30.7262 99.966 29.5612V3.39798L87.0058 33.396H83.365V33.1532C83.705 32.4737 84.1417 30.7262 84.1417 29.5612V4.22293C84.1417 3.05792 83.705 1.31041 83.365 0.630928ZM77.3929 33.1532C77.4899 32.2794 76.2279 30.6777 75.3541 29.5612L65.1121 16.3097V29.5612C65.1121 30.7262 65.5489 32.4737 65.8886 33.1532V33.396H61.4229V33.1532C61.7626 32.4737 62.1996 30.7262 62.1996 29.5612V4.22293C62.1996 3.05792 61.7626 1.31041 61.4229 0.630928V0.388167H65.8886V0.630928C65.5489 1.31041 65.1121 3.05792 65.1121 4.22293V14.7077L76.2764 3.10641C76.9074 2.42693 77.3929 1.16494 77.6357 0.388167H80.4994V0.582438L67.0536 14.3194L81.8098 33.1532V33.396H77.3929V33.1532Z" fill="#C3C3C3"/>
<path d="M299.276 37.7213H301.412C301.412 39.5658 302.383 40.4395 303.839 40.4395C305.295 40.4395 306.266 39.5658 306.266 37.7213H308.402C308.402 40.0998 306.508 41.2648 303.887 41.2648C301.266 41.2648 299.276 40.0998 299.276 37.7213ZM293.402 42.2355V41.9928H297.82V42.2355C297.48 42.915 297.043 44.6625 297.043 45.8275V71.8456L310.003 41.9928H313.644V42.2355C313.304 42.915 312.867 44.6625 312.867 45.8275V71.1658C312.867 72.3308 313.304 74.0783 313.644 74.7578V75.0006H309.227V74.7578C309.567 74.0783 310.003 72.3308 310.003 71.1658V45.0023L297.043 75.0006H293.402V74.7578C293.742 74.0783 294.179 72.3308 294.179 71.1658V45.8275C294.179 44.6625 293.742 42.915 293.402 42.2355ZM285.829 42.2355V41.9928H290.295V42.2355C289.955 42.915 289.519 44.6625 289.519 45.8275V71.1658C289.519 72.3308 289.955 74.0783 290.295 74.7578V75.0006H285.829V74.7578C286.169 74.0783 286.606 72.3308 286.606 71.1658V45.8275C286.606 44.6625 286.169 42.915 285.829 42.2355ZM273.16 73.9328C278.694 73.9328 280.441 69.3698 280.441 64.9525C280.441 60.5353 278.5 56.9921 272.966 56.9921H269.665V73.9328H273.16ZM283.79 65.0013C283.79 69.5156 280.539 75.0006 273.306 75.0006H265.976V74.7578C266.316 74.0783 266.753 72.3308 266.753 71.1658V45.8275C266.753 44.6625 266.316 42.915 265.976 42.2355V41.9928H270.442V42.2355C270.102 42.915 269.665 44.614 269.665 45.779V55.9725H273.354C280.539 55.9725 283.79 60.4871 283.79 65.0013ZM242.918 42.2355V41.9928H247.384V42.2355C247.044 42.915 246.608 44.6625 246.608 45.8275V56.4581H259.228V45.8275C259.228 44.6625 258.791 42.915 258.451 42.2355V41.9928H262.917V42.2355C262.577 42.915 262.141 44.6625 262.141 45.8275V71.1658C262.141 72.3308 262.577 74.0783 262.917 74.7578V75.0006H258.451V74.7578C258.791 74.0783 259.228 72.3308 259.228 71.1658V57.4773H246.608V71.1658C246.608 72.3308 247.044 74.0783 247.384 74.7578V75.0006H242.918V74.7578C243.258 74.0783 243.695 72.3308 243.695 71.1658V45.8275C243.695 44.6625 243.258 42.915 242.918 42.2355ZM219.86 42.2355V41.9928H224.326V42.2355C223.986 42.915 223.55 44.6625 223.55 45.8275V56.4581H236.17V45.8275C236.17 44.6625 235.733 42.915 235.393 42.2355V41.9928H239.859V42.2355C239.519 42.915 239.083 44.6625 239.083 45.8275V71.1658C239.083 72.3308 239.519 74.0783 239.859 74.7578V75.0006H235.393V74.7578C235.733 74.0783 236.17 72.3308 236.17 71.1658V57.4773H223.55V71.1658C223.55 72.3308 223.986 74.0783 224.326 74.7578V75.0006H219.86V74.7578C220.2 74.0783 220.637 72.3308 220.637 71.1658V45.8275C220.637 44.6625 220.2 42.915 219.86 42.2355ZM217.141 71.4085H217.432L216.413 75.0006H201.802V74.7578C202.142 74.0783 202.579 72.3308 202.579 71.1658V45.8275C202.579 44.6625 202.142 42.915 201.802 42.2355V41.9928H215.976L216.996 45.5851H216.704C215.733 44.6625 212.772 43.0123 211.316 43.0123H205.491V56.5065H215.151V57.5258H205.491V73.981H211.753C213.209 73.981 216.17 72.3308 217.141 71.4085ZM189.762 57.9628H184.666V71.2143C184.666 72.0395 184.909 73.1561 185.151 73.981H188.889C194.374 73.981 196.17 69.8065 196.17 65.438C196.17 61.0208 194.034 57.9628 189.762 57.9628ZM184.666 56.9436H187.918C192.384 56.9436 194.228 54.4193 194.228 49.371C194.228 45.6333 192.578 43.0608 187.335 43.0608H184.666V56.9436ZM180.977 42.2355V41.9928C181.85 42.0416 183.404 42.0897 184.423 42.0897C185.443 42.0897 186.074 41.9928 188.306 41.9928C193.646 41.9928 197.577 44.9541 197.577 49.4195C197.577 53.7398 194.811 56.021 191.85 57.1375C196.121 57.817 199.519 60.7783 199.519 65.1468C199.519 69.5156 196.995 75.0006 189.034 75.0006H180.977V74.7578C181.316 74.0783 181.753 72.3308 181.753 71.1658V45.8275C181.753 44.6625 181.316 42.915 180.977 42.2355ZM178.159 41.9928L179.179 45.6332H178.888C177.917 44.711 174.567 43.0608 173.5 43.0608H169.713V71.1658C169.713 72.3308 170.15 74.0783 170.49 74.7578V75.0006H166.024V74.7578C166.364 74.0783 166.801 72.3308 166.801 71.1658V43.0608H163.063C161.947 43.0608 158.209 44.9541 157.384 45.6332H157.093L158.306 41.9928H178.159ZM153.887 43.352C154.227 43.352 154.567 43.2547 154.809 43.1093H155.101V49.1286H154.372C154.13 45.0996 151.945 42.721 148.305 42.721C142.917 42.721 140.636 50.4391 140.636 58.2541C140.636 66.069 142.189 74.2241 147.868 74.2241C151.509 74.2241 153.547 71.0203 154.372 65.8748H155.538C154.712 71.3116 152.528 75.3888 147.868 75.3888C140.83 75.3888 137.383 66.7973 137.383 58.2541C137.383 49.7108 141.752 41.6045 148.256 41.6045C151.897 41.6045 152.722 43.352 153.887 43.352ZM135.489 71.4085H135.78L134.761 75.0006H120.15V74.7578C120.49 74.0783 120.927 72.3308 120.927 71.1658V45.8275C120.927 44.6625 120.49 42.915 120.15 42.2355V41.9928H134.325L135.344 45.5851H135.053C134.082 44.6625 131.121 43.0123 129.665 43.0123H123.839V56.5065H133.499V57.5258H123.839V73.981H130.101C131.557 73.981 134.518 72.3308 135.489 71.4085ZM86.5577 74.7578L97.0909 54.0311L87.5284 42.187V41.9928H90.5864C90.5864 42.7695 90.8292 44.2255 91.4117 44.9541L101.168 57.186V45.8275C101.168 44.6625 100.732 42.915 100.392 42.2355V41.9928H104.809V42.2355C104.469 42.915 104.032 44.6625 104.032 45.8275V57.2348L113.789 44.9541C114.371 44.2255 114.614 42.7695 114.614 41.9928H117.672V42.187L108.11 54.0311L118.643 74.7578V75.0006H114.711V74.7578C114.954 73.8843 114.177 72.4281 113.546 71.1658L106.217 56.3608L104.032 59.1275V71.1658C104.032 72.3308 104.469 74.0783 104.809 74.7578V75.0006H100.392V74.7578C100.732 74.0783 101.168 72.3308 101.168 71.1658V59.1275L98.9354 56.3608L91.6059 71.1658C90.9749 72.4281 90.1982 73.8843 90.4409 74.7578V75.0006H86.5577V74.7578ZM83.3517 58.7877C83.3517 51.2643 81.9443 42.6726 76.0707 42.6726C70.2945 42.6726 68.7898 51.2643 68.7898 58.7877C68.7898 67.0886 70.7797 74.3208 76.0707 74.3208C81.3133 74.3208 83.3517 67.0886 83.3517 58.7877ZM65.5375 58.7877C65.5375 50.9246 68.9837 41.6045 76.0707 41.6045C83.2547 41.6045 86.604 50.9246 86.604 58.7877C86.604 67.8166 82.381 75.3888 76.0707 75.3888C69.7605 75.3888 65.5375 67.8166 65.5375 58.7877ZM44.1776 73.9328H57.623V43.0123H49.4198L48.8858 54.9533C48.4975 63.5451 47.0416 71.0688 44.1776 73.9328ZM41.7991 73.9328C45.1483 72.8163 47.2356 64.3703 47.5753 54.8563L47.915 45.7305C47.9635 44.5655 47.284 42.818 45.9251 42.2355V41.9928H61.3123V42.2355C60.9726 42.915 60.5355 44.6625 60.5355 45.8275V71.1658C60.5355 71.9911 60.7783 73.1076 61.0211 73.9328H63.2541L64.2733 80H63.9821C62.4773 77.476 60.4386 75.0006 58.5456 75.0006H44.9055C43.789 75.0006 41.5078 77.379 39.8088 80H39.5175L40.731 73.9328H41.7991ZM24.8567 71.0203C24.8567 70.2435 25.0022 69.5156 25.1965 68.8358H26.5073C26.313 69.4668 26.1672 70.1462 26.1672 71.0203C26.1672 72.4766 26.7982 73.7386 28.1575 73.7386C30.633 73.7386 31.8468 70.6318 33.3027 66.7L33.4485 66.263L23.4005 41.9928H27.7208V42.2355C27.478 43.2063 27.9147 45.5851 28.74 47.575L34.856 62.5255L40.1473 48.5943C41.409 45.1965 41.1665 43.5945 40.8264 42.2355V41.9928H43.9332L43.9817 42.2355L34.4677 67.1856C32.6717 71.9426 31.4097 75.0006 28.109 75.0006C25.779 75.0006 24.8567 73.2534 24.8567 71.0203ZM17.9624 75.0006V74.7578C17.9624 73.7871 17.4772 71.554 16.2637 69.4183L10.536 59.2248L5.34193 68.3991C3.54593 71.5055 3.6429 73.3988 3.98295 74.7578V75.0006H0.48794L0.439453 74.7578L9.85616 57.9628L0.876162 41.9928H5.58469V42.2355C5.48771 43.2063 6.02172 45.5363 7.18641 47.575L11.8464 55.8271L16.0209 48.5943C17.7684 45.5363 17.7684 43.5945 17.4287 42.2355V41.9928H21.215L21.1177 42.2355L12.5259 57.0402L22.6709 75.0006H17.9624Z" fill="#C3C3C3"/>
</svg>
