<svg width="198" height="60" viewBox="0 0 198 60" fill="none" xmlns="http://www.w3.org/2000/svg">
<path d="M54.1778 56.1942C54.3824 56.1942 54.5782 56.1742 54.7656 56.1339C54.9524 56.0942 55.117 56.0271 55.2593 55.9338C55.4016 55.8403 55.5152 55.7135 55.5997 55.5534C55.6845 55.3928 55.7268 55.1885 55.7268 54.9388C55.7268 54.4493 55.5887 54.0996 55.3126 53.8905C55.0367 53.6814 54.6718 53.5766 54.2181 53.5766H51.9344V56.1942H54.1778ZM54.0578 52.1479C54.4314 52.1479 54.7388 52.0589 54.9792 51.8805C55.2196 51.703 55.3396 51.4133 55.3396 51.0126C55.3396 50.7902 55.2996 50.6079 55.2196 50.465C55.1393 50.323 55.0325 50.2117 54.8992 50.1314C54.7656 50.0511 54.612 49.9959 54.4382 49.9646C54.2649 49.9333 54.0845 49.9178 53.8974 49.9178H51.9344V52.1479H54.0578ZM49.8379 48.2882H54.3246C54.7786 48.2882 55.1928 48.3285 55.5665 48.4088C55.9404 48.4888 56.2614 48.6201 56.5282 48.8027C56.7954 48.9851 57.0022 49.2277 57.149 49.5306C57.2958 49.8333 57.3697 50.2072 57.3697 50.6522C57.3697 51.1329 57.2603 51.5336 57.0422 51.854C56.8238 52.1744 56.5015 52.4373 56.074 52.6422C56.6618 52.8113 57.1003 53.1074 57.3897 53.5301C57.6788 53.9531 57.8236 54.4626 57.8236 55.0591C57.8236 55.5399 57.7301 55.9558 57.543 56.3078C57.3559 56.6594 57.1045 56.9466 56.7886 57.1689C56.4724 57.3918 56.1117 57.5564 55.7068 57.6632C55.3016 57.77 54.8857 57.8232 54.4585 57.8232H49.8379V48.2882Z" fill="#C3C3C3"/>
<path d="M61.6162 48.2882H63.7128V51.9473H67.5722V48.2882H69.6688V57.8232H67.5722V53.7102H63.7128V57.8232H61.6162V48.2882Z" fill="#C3C3C3"/>
<path d="M71.334 48.2882H78.4653V50.0511H73.4305V52.0944H78.0511V53.7237H73.4305V56.0606H78.5721V57.8232H71.334V48.2882Z" fill="#C3C3C3"/>
<path d="M86.2276 56.0608V50.0113H83.4099V50.1848C83.4099 50.8347 83.3942 51.4357 83.3632 51.9878C83.3319 52.5398 83.2786 53.0538 83.2031 53.5303C83.1273 54.0065 83.0205 54.4515 82.8821 54.8657C82.7441 55.2797 82.5685 55.6781 82.3546 56.0608H86.2276ZM79.2969 56.0608H80.098C80.3739 55.6869 80.5985 55.2816 80.7723 54.8457C80.9462 54.4095 81.0795 53.933 81.1731 53.4165C81.2666 52.9002 81.3289 52.3394 81.3599 51.7341C81.3912 51.1286 81.4067 50.4745 81.4067 49.7709V48.2884H88.3241V56.0608H89.3657V60H87.4695V57.8234H81.1931V60H79.2969V56.0608Z" fill="#C3C3C3"/>
<path d="M95.7021 54.1377L94.5 50.6389H94.4735L93.2311 54.1377H95.7021ZM93.4317 48.2882H95.5818L99.1476 57.8232H96.9705L96.2494 55.6999H92.6841L91.936 57.8232H89.8262L93.4317 48.2882Z" fill="#C3C3C3"/>
<path d="M100.529 57.9302C100.2 57.9302 99.8973 57.8769 99.6211 57.7701V56.0608C99.6569 56.0788 99.7079 56.092 99.7747 56.1008C99.8415 56.1098 99.8973 56.1143 99.9418 56.1143C100.28 56.1143 100.558 56.003 100.776 55.7801C100.994 55.5578 101.164 55.2106 101.284 54.7386C101.404 54.2669 101.486 53.6571 101.531 52.9095C101.575 52.1613 101.598 51.2624 101.598 50.2116V48.2883H108.475V57.8234H106.378V50.0512H103.588C103.561 51.1553 103.523 52.1881 103.474 53.1495C103.425 54.111 103.307 54.9457 103.12 55.6536C102.933 56.3614 102.639 56.9177 102.239 57.3229C101.838 57.7278 101.268 57.9302 100.529 57.9302Z" fill="#C3C3C3"/>
<path d="M114.2 56.1142C114.708 56.1142 115.103 56.0119 115.389 55.8067C115.674 55.6021 115.816 55.2462 115.816 54.7384C115.816 54.4893 115.776 54.2777 115.696 54.1044C115.615 53.9305 115.502 53.7905 115.356 53.6837C115.208 53.5766 115.035 53.4991 114.835 53.4501C114.634 53.4011 114.418 53.3765 114.187 53.3765H112.223V56.1142H114.2ZM110.127 48.2885H112.223V51.734H114.467C114.948 51.734 115.393 51.794 115.803 51.9143C116.212 52.0344 116.568 52.2192 116.871 52.4683C117.173 52.7177 117.412 53.0336 117.586 53.4166C117.759 53.7995 117.846 54.2493 117.846 54.7655C117.846 55.2905 117.761 55.7447 117.592 56.1274C117.423 56.5104 117.185 56.8285 116.878 57.0824C116.57 57.336 116.203 57.5228 115.776 57.6432C115.348 57.7635 114.877 57.8232 114.36 57.8232H110.127V48.2885Z" fill="#C3C3C3"/>
<path d="M118.918 48.2882H121.014V51.9473H124.874V48.2882H126.971V57.8232H124.874V53.7102H121.014V57.8232H118.918V48.2882Z" fill="#C3C3C3"/>
<path d="M128.636 48.2882H135.767V50.0511H130.732V52.0944H135.353V53.7237H130.732V56.0606H135.874V57.8232H128.636V48.2882Z" fill="#C3C3C3"/>
<path d="M137.149 48.2882H140.101L142.331 54.8455H142.358L144.468 48.2882H147.419V57.8232H145.456V51.0658H145.429L143.092 57.8232H141.476L139.139 51.1329H139.113V57.8232H137.149V48.2882Z" fill="#C3C3C3"/>
<path d="M174.795 28.5903C175.241 29.4489 175.833 30.1449 176.572 30.6764C177.31 31.2093 178.177 31.6041 179.174 31.8613C180.169 32.1192 181.2 32.248 182.265 32.248C182.986 32.248 183.758 32.1885 184.583 32.0676C185.407 31.9478 186.179 31.7159 186.901 31.3724C187.622 31.0295 188.222 30.5569 188.704 29.9556C189.185 29.3548 189.425 28.5903 189.425 27.6629C189.425 26.6673 189.107 25.8603 188.472 25.2417C187.836 24.6237 187.004 24.1086 185.973 23.6966C184.943 23.2844 183.775 22.9237 182.471 22.6146C181.165 22.3054 179.843 21.9625 178.504 21.5843C177.13 21.2414 175.79 20.8204 174.486 20.3222C173.18 19.8248 172.013 19.1809 170.983 18.3902C169.952 17.6009 169.119 16.6132 168.484 15.4283C167.849 14.2433 167.531 12.8098 167.531 11.1267C167.531 9.23865 167.935 7.59805 168.742 6.20683C169.549 4.81618 170.604 3.65716 171.91 2.72978C173.215 1.80267 174.692 1.11594 176.34 0.669299C177.989 0.223501 179.637 -0.000240737 181.286 -0.000240737C183.209 -0.000240737 185.054 0.214483 186.824 0.643655C188.592 1.07339 190.163 1.76858 191.537 2.72978C192.91 3.69154 194.001 4.91903 194.808 6.41311C195.615 7.90689 196.019 9.71911 196.019 11.8481H188.189C188.12 10.7493 187.888 9.83887 187.493 9.11776C187.098 8.39637 186.574 7.82996 185.922 7.4177C185.269 7.00572 184.522 6.71434 183.681 6.54217C182.839 6.37055 181.921 6.28433 180.925 6.28433C180.272 6.28433 179.62 6.35364 178.968 6.4906C178.315 6.62783 177.722 6.86877 177.191 7.21143C176.658 7.55522 176.22 7.98439 175.877 8.49951C175.533 9.01491 175.362 9.66726 175.362 10.4571C175.362 11.1785 175.498 11.763 175.774 12.2088C176.048 12.6551 176.589 13.0674 177.396 13.445C178.203 13.8232 179.319 14.2008 180.745 14.5781C182.169 14.9565 184.033 15.4373 186.334 16.0209C187.021 16.1587 187.974 16.4069 189.193 16.7676C190.412 17.1283 191.623 17.7037 192.825 18.4936C194.027 19.2838 195.066 20.3399 195.942 21.6615C196.817 22.984 197.255 24.675 197.255 26.7358C197.255 28.4189 196.929 29.9812 196.276 31.4237C195.624 32.8659 194.654 34.1112 193.366 35.1583C192.078 36.2066 190.481 37.0215 188.575 37.6054C186.669 38.189 184.462 38.481 181.955 38.481C179.929 38.481 177.963 38.2313 176.057 37.7342C174.151 37.2366 172.468 36.4554 171.008 35.3902C169.549 34.3262 168.39 32.9691 167.531 31.3203C166.673 29.6724 166.26 27.7145 166.295 25.448H174.125C174.125 26.6845 174.348 27.7325 174.795 28.5903Z" fill="#C3C3C3"/>
<path d="M153.832 0.824322H161.92V37.6055H153.832V0.824322Z" fill="#C3C3C3"/>
<path d="M136.059 37.6055L127.457 12.3122H127.353L119.214 37.6055H107.829V0.824334H115.402V26.8905H115.505L124.52 0.824334H130.754L139.769 26.633H139.872V0.824334H147.444V37.6055H136.059Z" fill="#C3C3C3"/>
<path d="M82.4285 15.0422L87.0649 28.539H87.1677L91.9585 15.0422H82.4285ZM82.8921 37.6055L69.1377 0.824047H77.5346L80.3162 9.01495H94.0708L96.9558 0.824047H105.095L91.1864 37.6055H82.8921Z" fill="#C3C3C3"/>
<path d="M43.7145 13.2392H35.8843C36.125 11.1102 36.7086 9.2211 37.636 7.57261C38.5631 5.92412 39.7398 4.5422 41.1643 3.42573C42.5899 2.31011 44.2037 1.46022 46.0069 0.875779C47.8098 0.292466 49.7246 0.000247544 51.751 0.000247544C54.567 0.000247544 57.1 0.498176 59.3493 1.49404C61.5989 2.49046 63.4962 3.86364 65.0418 5.61527C66.5869 7.36662 67.7718 9.4192 68.5961 11.7711C69.4203 14.1238 69.8326 16.674 69.8326 19.4212C69.8326 22.0999 69.4203 24.5983 68.5961 26.9166C67.7718 29.2347 66.5869 31.2526 65.0418 32.9693C63.4962 34.6871 61.5989 36.0346 59.3493 37.0133C57.1 37.9922 54.567 38.4814 51.751 38.4814C49.484 38.4814 47.4069 38.1379 45.5174 37.4512C43.6289 36.7648 41.9809 35.7692 40.5722 34.4633C39.1644 33.1586 38.031 31.5786 37.1721 29.7241C36.3138 27.8694 35.7812 25.792 35.5752 23.4906H43.4054C43.7145 25.9633 44.5644 27.9556 45.9556 29.4663C47.3463 30.9781 49.2783 31.7328 51.751 31.7328C53.5717 31.7328 55.1168 31.3811 56.3871 30.6766C57.658 29.9738 58.6882 29.0374 59.4781 27.8694C60.2685 26.7022 60.8431 25.3887 61.2035 23.9288C61.5642 22.4694 61.7445 20.9663 61.7445 19.4212C61.7445 17.8071 61.5642 16.2448 61.2035 14.7333C60.8431 13.2226 60.2685 11.8742 59.4781 10.6892C58.6882 9.5043 57.658 8.5603 56.3871 7.85581C55.1168 7.15217 53.5717 6.79965 51.751 6.79965C50.7551 6.79965 49.8021 6.96337 48.8916 7.28941C47.9823 7.61601 47.1659 8.0711 46.4445 8.65442C45.7237 9.23886 45.1232 9.91657 44.6416 10.6892C44.1609 11.4622 43.8523 12.3118 43.7145 13.2392Z" fill="#C3C3C3"/>
<path d="M8.08777 0.824334V14.9391H22.9758V0.824334H31.0633V37.6055H22.9758V21.7391H8.08777V37.6055H0V0.824334H8.08777Z" fill="#C3C3C3"/>
</svg>
