<svg width="189" height="60" viewBox="0 0 189 60" fill="none" xmlns="http://www.w3.org/2000/svg">
<path d="M22.6282 1.74063H10.3604H8.96082H0.781844C0.670663 1.74063 0.579102 1.83088 0.579102 1.94206V44.8539C0.579102 44.9651 0.670663 45.0566 0.781844 45.0566H10.3604C10.4716 45.0566 10.5631 44.9651 10.5631 44.8539V27.1892H19.6211C19.7323 27.1892 19.8238 27.0977 19.8238 26.9865V19.8095C19.8238 19.6983 19.7323 19.608 19.6211 19.608H10.5631V9.31923H22.6282C22.7394 9.31923 22.8296 9.22898 22.8296 9.1178V1.94206C22.8296 1.82958 22.7394 1.74063 22.6282 1.74063Z" fill="#C4C4C4"/>
<path d="M48.3336 27.0555C49.9281 26.0261 51.2361 24.7495 52.2458 23.2152C53.4558 21.3434 54.0744 19.2467 54.1085 16.921C54.1111 16.8465 54.0692 16.7837 54.0077 16.7484C54.0692 16.7144 54.1111 16.6516 54.1111 16.577V14.5156C54.1111 14.4411 54.0692 14.3783 54.0077 14.3443C54.0692 14.3103 54.1085 14.2475 54.1085 14.1729C54.0744 11.8486 53.4558 9.77017 52.2458 7.93896C51.0032 6.01226 49.3198 4.50805 47.1956 3.42633C45.1251 2.33152 42.7863 1.77039 40.1808 1.74292C40.1062 1.74292 40.0434 1.78347 40.0094 1.84364C39.9754 1.78347 39.9126 1.7403 39.8381 1.7403H37.4327H37.2351H27.8528C27.7416 1.7403 27.6514 1.83186 27.6514 1.94173V44.8536C27.6514 44.9647 27.7416 45.0563 27.8528 45.0563H37.4327C37.5438 45.0563 37.6341 44.9647 37.6341 44.8536V29.355H39.5712L45.401 44.9268C45.4311 45.0053 45.507 45.0576 45.5907 45.0576H54.7808C54.922 45.0576 55.0188 44.9164 54.9704 44.7856L48.3336 27.0555ZM37.6341 9.3189H39.8381C39.9126 9.3189 39.9754 9.27705 40.0094 9.21688C40.0434 9.27705 40.1062 9.3189 40.1808 9.32152C41.3671 9.36599 42.3024 9.80548 42.9865 10.6413C43.715 11.4876 44.0956 12.6622 44.1257 14.169C44.1283 14.2436 44.1702 14.3063 44.2304 14.3403C44.1702 14.3744 44.1283 14.4371 44.1283 14.5117V16.5757C44.1283 16.6503 44.1702 16.7131 44.2304 16.7471C44.1702 16.7811 44.1283 16.8439 44.1257 16.9184C44.0956 18.4253 43.715 19.6012 42.9865 20.4461C42.3024 21.2819 41.3671 21.7214 40.1808 21.7659C40.1062 21.7685 40.0434 21.813 40.0094 21.8706C39.9754 21.8104 39.9126 21.7685 39.8381 21.7685H37.6341V9.3189Z" fill="#C4C4C4"/>
<path d="M83.7149 37.4754H71.0482V27.1866H80.1074C80.2173 27.1866 80.3088 27.0964 80.3088 26.9852V19.8095C80.3088 19.6996 80.2173 19.608 80.1074 19.608H71.0482V9.31924H83.1132C83.2244 9.31924 83.316 9.22898 83.316 9.1178V1.94206C83.316 1.83219 83.2244 1.74063 83.1132 1.74063H70.8467H69.4458H61.2669C61.1557 1.74063 61.0654 1.83219 61.0654 1.94206V44.8539C61.0654 44.9651 61.1557 45.0566 61.2669 45.0566H68.8442H70.8467H83.7149C83.8261 45.0566 83.9163 44.9651 83.9163 44.8539V37.6769C83.9163 37.5657 83.8261 37.4754 83.7149 37.4754Z" fill="#C4C4C4"/>
<path d="M112.207 23.8799C110.845 22.6765 109.38 21.6354 107.817 20.7511C106.254 19.8277 104.771 18.9657 103.369 18.1639C102.006 17.3229 100.882 16.44 100 15.5178C99.1647 14.6048 98.7252 13.5493 98.6807 12.3498C98.6781 12.2753 98.6336 12.2125 98.5748 12.1785C98.6362 12.1445 98.6781 12.0817 98.6807 12.0071C98.7186 10.9005 99.0784 10.0242 99.7598 9.38063C100.521 8.69785 101.544 8.35646 102.827 8.35646C103.871 8.35646 104.712 8.77895 105.354 9.62C106.003 10.3852 106.436 11.4774 106.648 12.8992C106.663 13.0117 106.772 13.0915 106.886 13.0705L115.201 11.5794C115.311 11.5585 115.383 11.4578 115.364 11.3492C114.994 9.1465 114.263 7.26689 113.171 5.70775C112.05 4.10282 110.607 2.87984 108.841 2.03748C107.117 1.19512 105.112 0.773937 102.827 0.773937C100.142 0.773937 97.7363 1.2736 95.6108 2.27815C93.4853 3.28139 91.8032 4.64433 90.5593 6.36829C89.3546 8.00068 88.7333 9.87898 88.6967 12.0006C88.6954 12.0751 88.7372 12.1379 88.7987 12.1719C88.7372 12.2072 88.6954 12.2687 88.6967 12.3433C88.7215 14.7422 89.161 16.7813 90.0191 18.4595C90.9007 20.1835 92.023 21.6471 93.3872 22.8505C94.7894 24.0539 96.2727 25.116 97.8371 26.0381C99.4001 26.921 100.864 27.783 102.225 28.6241C103.629 29.4259 104.771 30.2878 105.655 31.21C106.537 32.1334 106.979 33.2557 106.979 34.5807C106.979 35.7828 106.597 36.7259 105.836 37.4086C105.114 38.0914 104.113 38.4328 102.83 38.4328C101.265 38.4328 100.002 37.8102 99.0417 36.5663C98.1117 35.3276 97.5741 33.6376 97.4316 31.4991C97.4224 31.3787 97.3125 31.2911 97.1935 31.312L88.6404 32.8031C88.5358 32.8215 88.4652 32.9169 88.4756 33.0216C88.9007 37.0633 90.3579 40.2287 92.8457 42.5203C95.3728 44.846 98.699 46.0088 102.83 46.0088C105.515 46.0088 107.92 45.5078 110.046 44.5046C112.17 43.5013 113.854 42.1593 115.096 40.4733C116.34 38.7493 116.961 36.7821 116.961 34.5781C116.961 32.0903 116.519 29.9857 115.638 28.2604C114.754 26.5469 113.609 25.0807 112.207 23.8799Z" fill="#C4C4C4"/>
<path d="M141.407 1.89205C141.385 1.8018 141.304 1.73901 141.211 1.73901H140.991H132.008H131.788C131.694 1.73901 131.614 1.8018 131.592 1.89205L120.929 44.8039C120.897 44.9308 120.993 45.0537 121.124 45.0537H130.331C130.424 45.0537 130.504 44.9922 130.526 44.9007L132.162 38.3149H140.84L142.477 44.9007C142.5 44.9922 142.579 45.0537 142.672 45.0537H151.879C152.01 45.0537 152.107 44.9308 152.074 44.8039L141.407 1.89205ZM134.042 30.7376L136.497 20.8582L138.954 30.7376H134.042Z" fill="#C4C4C4"/>
<path d="M187.087 16.8342C186.18 15.6073 184.83 14.6276 183.05 13.8925L183.039 13.8859L183.024 13.882C179.763 13.0462 176.518 12.2104 173.286 11.3745C171.558 10.905 170.285 10.2967 169.447 9.55772C168.616 8.82523 168.211 7.96718 168.211 6.97179C168.211 5.63369 168.873 4.55066 170.246 3.71746C171.353 3.04253 172.654 2.70245 174.156 2.70245C176.342 2.70245 178.362 3.35645 180.228 4.66969C181.846 5.82074 183.291 7.42959 184.562 9.50148L184.651 9.64536L184.808 9.58388L186.314 8.9992L186.493 8.92857L186.433 8.74675L183.793 0.890856L183.747 0.753515H183.602H181.971H181.827L181.782 0.890856L181.368 2.09815C180.323 1.35912 179.188 0.828071 177.967 0.508917C176.663 0.170143 175.239 0.000102128 173.691 0.000102128C170.926 0.000102128 168.586 0.663261 166.677 2.00135C164.504 3.51603 163.413 5.61277 163.413 8.26933C163.413 9.84417 163.866 11.2097 164.773 12.3569C165.68 13.4987 167.032 14.413 168.81 15.1037L168.82 15.1076L168.83 15.1102C172.089 15.9735 175.35 16.8237 178.61 17.6595C180.335 18.171 181.606 18.8263 182.446 19.6176C183.279 20.405 183.689 21.3285 183.689 22.3984C183.689 24.282 182.9 25.7823 181.307 26.915C179.897 27.9182 178.198 28.4244 176.198 28.4244C173.685 28.4244 171.287 27.5389 169.006 25.7522C166.941 24.1289 165.329 22.0911 164.173 19.6385L164.096 19.475L163.925 19.5339L162.211 20.1186L162.029 20.1814L162.082 20.3658L164.883 30.2713L164.925 30.4191H165.078H166.792H166.932L166.98 30.2883L167.677 28.4127C170.038 30.2229 172.826 31.1294 176.03 31.1294C179.324 31.1294 182.139 30.3407 184.463 28.7541C187.109 26.9333 188.439 24.4193 188.439 21.2317C188.443 19.5339 187.995 18.0637 187.087 16.8342Z" fill="#C4C4C4"/>
<path d="M156.574 1.74871C155.971 0.965217 155.142 0.57543 154.102 0.57543C153.315 0.57543 152.633 0.880196 152.066 1.47796C151.499 2.07441 151.213 2.78204 151.213 3.59039C151.213 4.30325 151.437 4.92194 151.885 5.43468C151.885 5.4373 151.887 5.4373 151.887 5.43991C151.889 5.44122 151.89 5.44384 151.89 5.44514C152.321 5.99189 152.894 6.26919 153.596 6.26919C154.002 6.26919 154.403 6.15539 154.794 5.94219C154.72 6.5321 154.467 7.08931 154.028 7.61513C153.596 8.12787 152.997 8.63276 152.225 9.1298L152.072 9.22921L152.153 9.3901L152.7 10.4823L152.786 10.6562L152.964 10.5752C154.225 10.0022 155.287 9.17035 156.147 8.08209C156.986 7.01214 157.408 5.82054 157.408 4.51515C157.412 3.44258 157.136 2.51782 156.574 1.74871Z" fill="#C4C4C4"/>
<path d="M54.6416 57.0932C55.7482 57.0932 56.0307 56.5452 56.0307 56.0337C56.0307 55.1024 55.1452 54.9952 54.5579 54.9952C53.4827 54.9952 53.4971 55.2555 53.4971 55.5825V57.0932H54.6416ZM55.0379 54.676C56.5866 54.676 56.8613 55.4451 56.8613 56.0102C56.8613 56.7806 56.206 57.2842 55.4578 57.3457L56.6559 59.0696C56.8155 59.3064 57.0823 59.5876 57.5401 59.6412V59.8701H56.2661L54.5657 57.4137H53.4971V58.8865C53.4971 59.2292 53.5128 59.6412 54.1001 59.6412H54.1759V59.8701H52.0557V59.6412H52.1315C52.7188 59.6412 52.7345 59.2292 52.7345 58.8865V55.6596C52.7345 55.3156 52.7188 54.9049 52.1315 54.9049H52.0557V54.676H55.0379Z" fill="#C4C4C4"/>
<path d="M62.6032 56.0403L62.3586 56.1397C61.6274 55.1181 60.6804 54.9952 60.101 54.9952C59.1788 54.9952 59.1553 55.3156 59.1553 55.7277V56.9402H59.651C60.254 56.9402 60.6582 56.7571 60.6739 55.9566H60.9329V58.2443H60.6739C60.6503 57.4438 60.2684 57.2606 59.651 57.2606H59.1553V58.7792C59.1553 59.4581 59.43 59.5497 60.0487 59.5497C60.5588 59.5497 61.7412 59.4646 62.6032 58.1383L62.8478 58.2443L62.1532 59.8701H57.7139V59.6412H57.7897C58.2632 59.6412 58.3927 59.4123 58.3927 58.8865V55.6583C58.3927 55.1325 58.2632 54.9036 57.7897 54.9036H57.7139V54.6747H62.0774L62.6032 56.0403Z" fill="#C4C4C4"/>
<path d="M67.6059 56.0559L67.3848 56.1396C67.0343 55.5523 66.3776 54.9257 65.4634 54.9257C64.7152 54.9257 64.3411 55.3456 64.3411 55.7354C64.3411 56.3606 65.05 56.5058 65.4934 56.6131L66.2717 56.7962C67.1337 57.0016 67.9721 57.2462 67.9721 58.2821C67.9721 59.199 67.1337 59.9995 65.9041 59.9995C65.4241 59.9995 64.8211 59.8543 64.2731 59.4802L64.1266 59.87H63.8453L63.3496 58.1225L63.5785 58.061C63.9748 58.8929 64.7832 59.6254 65.806 59.6254C66.774 59.6254 67.2318 58.9623 67.2318 58.4888C67.2318 57.8413 66.5909 57.6883 66.0951 57.5666L65.2488 57.36C64.311 57.131 63.5864 56.7805 63.5864 55.9329C63.5864 55.4149 63.967 54.5451 65.3705 54.5451C66.0506 54.5451 66.4993 54.7662 66.774 54.9493L66.8655 54.6746H67.1402L67.6059 56.0559Z" fill="#C4C4C4"/>
<path d="M72.9195 54.6752L73.3551 56.0408L73.0948 56.1323C72.5533 55.0114 71.5396 54.9957 71.4022 54.9957C71.1577 54.9957 71.0818 55.0414 71.0818 55.3841V58.8857C71.0818 59.4128 71.2113 59.6404 71.6848 59.6404H71.8823V59.8706H69.5174V59.6404H69.7162C70.1884 59.6404 70.3192 59.4128 70.3192 58.8857V55.3841C70.3192 55.0414 70.242 54.9957 69.9988 54.9957C69.8614 54.9957 68.8464 55.0114 68.3049 56.1323L68.0459 56.0408L68.4802 54.6752H72.9195Z" fill="#C4C4C4"/>
<path d="M74.4219 57.619H76.138L75.2603 55.3313L74.4219 57.619ZM77.3348 58.6798C77.5271 59.1756 77.6488 59.6334 78.274 59.6399V59.8701H76.1302V59.6399C76.5801 59.6255 76.7253 59.4202 76.7253 59.2593C76.7253 59.1455 76.6717 58.9924 76.6115 58.8394L76.2675 57.9395H74.3068L74.0936 58.5124C74.0334 58.672 73.9183 59.0382 73.9183 59.1455C73.9183 59.3508 74.0557 59.6334 74.5893 59.6399V59.8701H72.5449V59.6399C73.3467 59.5719 73.522 58.6877 73.8111 57.9473L75.1073 54.6747H75.794L77.3348 58.6798Z" fill="#C4C4C4"/>
<path d="M80.508 54.6751V54.904H80.4321C79.8448 54.904 79.8291 55.316 79.8291 55.6587V58.1309C79.8291 59.2296 80.2634 59.6181 81.3242 59.6181C82.7277 59.6181 82.8192 58.7417 82.8192 58.123V55.6587C82.8192 55.316 82.8035 54.904 82.2162 54.904H82.1404V54.6751H83.9258V54.904H83.8499C83.2156 54.904 83.2456 55.354 83.2456 55.6587V58.2224C83.2456 58.9013 83.1397 60 81.2169 60C79.2261 60 79.0652 58.9627 79.0652 58.2368V55.6587C79.0652 55.316 79.0509 54.904 78.4636 54.904H78.3877V54.6751H80.508Z" fill="#C4C4C4"/>
<path d="M87.1191 57.0932C88.2257 57.0932 88.5082 56.5452 88.5082 56.0337C88.5082 55.1024 87.6227 54.9952 87.0354 54.9952C85.9602 54.9952 85.9746 55.2555 85.9746 55.5825V57.0932H87.1191ZM87.5155 54.676C89.0641 54.676 89.3388 55.4451 89.3388 56.0102C89.3388 56.7806 88.6835 57.2842 87.9353 57.3457L89.1335 59.0696C89.293 59.3064 89.5599 59.5876 90.0177 59.6412V59.8701H88.7437L87.0433 57.4137H85.9746V58.8865C85.9746 59.2292 85.9903 59.6412 86.5776 59.6412H86.6535V59.8701H84.5332V59.6412H84.6091C85.1964 59.6412 85.2121 59.2292 85.2121 58.8865V55.6596C85.2121 55.3156 85.1964 54.9049 84.6091 54.9049H84.5332V54.676H87.5155Z" fill="#C4C4C4"/>
<path d="M91.5489 57.619H93.265L92.3873 55.3313L91.5489 57.619ZM94.4618 58.6798C94.6541 59.1756 94.7757 59.6334 95.401 59.6399V59.8701H93.2571V59.6399C93.7071 59.6255 93.8523 59.4202 93.8523 59.2593C93.8523 59.1455 93.7986 58.9924 93.7385 58.8394L93.3945 57.9395H91.4338L91.2206 58.5124C91.1604 58.672 91.0453 59.0382 91.0453 59.1455C91.0453 59.3508 91.1826 59.6334 91.7163 59.6399V59.8701H89.6719V59.6399C90.4737 59.5719 90.649 58.6877 90.938 57.9473L92.2343 54.6747H92.921L94.4618 58.6798Z" fill="#C4C4C4"/>
<path d="M97.1929 54.6752L99.7095 58.832V55.6588C99.7095 55.3161 99.6951 54.9041 99.1078 54.9041H99.0319V54.6752H100.816V54.9041H100.74C100.153 54.9041 100.137 55.3161 100.137 55.6588V59.8706H99.4662L96.6134 55.2468V58.8857C96.6134 59.2297 96.6291 59.6404 97.2164 59.6404H97.2923V59.8706H95.5068V59.6404H95.584C96.0562 59.6404 96.1857 59.4128 96.1857 58.8857V55.8655C96.1857 55.4312 96.2236 54.9041 95.6219 54.9041H95.5068V54.6752H97.1929Z" fill="#C4C4C4"/>
<path d="M105.705 54.6752L106.14 56.0408L105.88 56.1323C105.338 55.0114 104.325 54.9957 104.187 54.9957C103.943 54.9957 103.867 55.0414 103.867 55.3841V58.8857C103.867 59.4128 103.996 59.6404 104.469 59.6404H104.667V59.8706H102.303V59.6404H102.501C102.974 59.6404 103.104 59.4128 103.104 58.8857V55.3841C103.104 55.0414 103.027 54.9957 102.784 54.9957C102.647 54.9957 101.632 55.0114 101.09 56.1323L100.831 56.0408L101.265 54.6752H105.705Z" fill="#C4C4C4"/>
<path d="M113.178 56.3005L112.956 56.3698C112.697 55.9185 111.958 54.9114 110.913 54.9114C110.783 54.9114 109.211 54.9571 109.211 57.2605C109.211 58.9086 110.135 59.6189 111.012 59.6189C111.767 59.6189 112.544 59.199 112.544 58.3606C112.544 57.6804 112.018 57.6189 111.805 57.6281V57.3979H113.895V57.6281C113.316 57.666 113.262 57.9028 113.254 58.3828V58.596V59.87H112.888L112.653 59.3442C112.171 59.7706 111.576 59.9995 110.943 59.9995C109.333 59.9995 108.297 58.7791 108.297 57.2605C108.297 55.3247 109.761 54.5451 110.828 54.5451C111.263 54.5451 111.821 54.6759 112.331 55.0422L112.477 54.6759H112.713L113.178 56.3005Z" fill="#C4C4C4"/>
<path d="M117.051 57.0932C118.157 57.0932 118.44 56.5452 118.44 56.0337C118.44 55.1024 117.554 54.9952 116.967 54.9952C115.892 54.9952 115.906 55.2555 115.906 55.5825V57.0932H117.051ZM117.447 54.676C118.996 54.676 119.27 55.4451 119.27 56.0102C119.27 56.7806 118.615 57.2842 117.867 57.3457L119.065 59.0696C119.225 59.3064 119.492 59.5876 119.949 59.6412V59.8701H118.675L116.975 57.4137H115.906V58.8865C115.906 59.2292 115.922 59.6412 116.509 59.6412H116.585V59.8701H114.465V59.6412H114.541C115.128 59.6412 115.144 59.2292 115.144 58.8865V55.6596C115.144 55.3156 115.128 54.9049 114.541 54.9049H114.465V54.676H117.447Z" fill="#C4C4C4"/>
<path d="M121.138 57.3147C121.138 59.0386 122.07 59.6795 122.954 59.6795C123.831 59.6795 124.755 59.0543 124.755 57.3447C124.755 55.8039 124.037 54.8648 122.939 54.8648C121.923 54.8648 121.138 55.6901 121.138 57.3147ZM125.669 57.3147C125.669 58.8398 124.471 60 122.939 60C121.413 60 120.223 58.8097 120.223 57.2846C120.223 55.728 121.435 54.5456 122.968 54.5456C124.54 54.5456 125.669 55.7437 125.669 57.3147Z" fill="#C4C4C4"/>
<path d="M128.483 54.6751V54.904H128.407C127.819 54.904 127.804 55.316 127.804 55.6587V58.1309C127.804 59.2296 128.238 59.6181 129.299 59.6181C130.702 59.6181 130.794 58.7417 130.794 58.123V55.6587C130.794 55.316 130.779 54.904 130.191 54.904H130.115V54.6751H131.9V54.904H131.825C131.19 54.904 131.22 55.354 131.22 55.6587V58.2224C131.22 58.9013 131.114 60 129.192 60C127.201 60 127.04 58.9627 127.04 58.2368V55.6587C127.04 55.316 127.025 54.904 126.438 54.904H126.362V54.6751H128.483Z" fill="#C4C4C4"/>
<path d="M134.887 57.2763C135.512 57.2763 136.183 57.0775 136.183 56.1083C136.183 55.606 135.94 54.9952 134.911 54.9952C134.087 54.9952 133.949 55.1181 133.949 55.4608V57.2763H134.887ZM133.949 58.8852C133.949 59.4123 134.079 59.6399 134.551 59.6399H134.628V59.8701H132.508V59.6399H132.584C133.057 59.6399 133.185 59.4123 133.185 58.8852V55.6583C133.185 55.1325 133.057 54.9036 132.584 54.9036H132.508V54.6747H135.01C136.489 54.6747 136.963 55.3993 136.963 56.1161C136.963 56.8185 136.565 57.5968 135.001 57.5968H133.949V58.8852Z" fill="#C4C4C4"/>
</svg>
